<svg xmlns="http://www.w3.org/2000/svg" viewBox="0 0 120 120">
  <ellipse cx="60" cy="104" rx="26" ry="8" fill="#5ea75c" opacity="0.35"/>
  <path d="M58 64h4v36h-4z" fill="#3f8f45"/>
  <g fill="#ffffff">
    <ellipse cx="60" cy="44" rx="8" ry="20"/>
    <ellipse cx="60" cy="44" rx="8" ry="20" transform="rotate(30 60 44)"/>
    <ellipse cx="60" cy="44" rx="8" ry="20" transform="rotate(60 60 44)"/>
    <ellipse cx="60" cy="44" rx="8" ry="20" transform="rotate(90 60 44)"/>
    <ellipse cx="60" cy="44" rx="8" ry="20" transform="rotate(120 60 44)"/>
    <ellipse cx="60" cy="44" rx="8" ry="20" transform="rotate(150 60 44)"/>
  </g>
  <circle cx="60" cy="44" r="11" fill="#f5c84b"/>
  <path d="M48 74c-7 0-14-6-17-14 7-2 14 1 17 8z" fill="#64b564"/>
  <path d="M72 74c7 0 14-6 17-14-7-2-14 1-17 8z" fill="#64b564"/>
</svg>
