<svg xmlns="http://www.w3.org/2000/svg" viewBox="0 0 120 120">
  <defs>
    <linearGradient id="rosePetal" x1="0" x2="1" y1="0" y2="1">
      <stop offset="0%" stop-color="#ff9ab0"/>
      <stop offset="100%" stop-color="#e84f7d"/>
    </linearGradient>
  </defs>
  <ellipse cx="60" cy="104" rx="26" ry="8" fill="#5ea75c" opacity="0.35"/>
  <path d="M58 70h4v30h-4z" fill="#3f8f45"/>
  <path d="M60 56c-7 0-12-6-12-12 0-9 9-13 12-18 3 5 12 9 12 18 0 6-5 12-12 12z" fill="url(#rosePetal)"/>
  <path d="M60 58c-9 0-17-7-17-16 0-13 12-19 17-26 5 7 17 13 17 26 0 9-8 16-17 16z" fill="url(#rosePetal)"/>
  <path d="M60 62c-12 0-22-9-22-21 0-17 16-24 22-34 6 10 22 17 22 34 0 12-10 21-22 21z" fill="url(#rosePetal)"/>
  <circle cx="60" cy="36" r="8" fill="#ffbfd0"/>
</svg>
