<svg xmlns="http://www.w3.org/2000/svg" viewBox="0 0 120 120">
  <ellipse cx="60" cy="104" rx="26" ry="8" fill="#5ea75c" opacity="0.35"/>
  <path d="M58 62h4v38h-4z" fill="#3f8f45"/>
  <g fill="#f2b63f">
    <ellipse cx="60" cy="40" rx="8" ry="22"/>
    <ellipse cx="60" cy="40" rx="8" ry="22" transform="rotate(20 60 40)"/>
    <ellipse cx="60" cy="40" rx="8" ry="22" transform="rotate(40 60 40)"/>
    <ellipse cx="60" cy="40" rx="8" ry="22" transform="rotate(60 60 40)"/>
    <ellipse cx="60" cy="40" rx="8" ry="22" transform="rotate(80 60 40)"/>
    <ellipse cx="60" cy="40" rx="8" ry="22" transform="rotate(100 60 40)"/>
    <ellipse cx="60" cy="40" rx="8" ry="22" transform="rotate(120 60 40)"/>
    <ellipse cx="60" cy="40" rx="8" ry="22" transform="rotate(140 60 40)"/>
    <ellipse cx="60" cy="40" rx="8" ry="22" transform="rotate(160 60 40)"/>
  </g>
  <circle cx="60" cy="40" r="13" fill="#6f4d31"/>
  <path d="M48 74c-7 0-14-6-17-14 7-2 14 1 17 8z" fill="#64b564"/>
  <path d="M72 74c7 0 14-6 17-14-7-2-14 1-17 8z" fill="#64b564"/>
</svg>
