<svg xmlns="http://www.w3.org/2000/svg" viewBox="0 0 120 120">
  <ellipse cx="60" cy="104" rx="26" ry="8" fill="#5ea75c" opacity="0.35"/>
  <path d="M58 66h4v34h-4z" fill="#3f8f45"/>
  <path d="M38 70c12-10 24-9 44 0-6-14-5-30-5-40-6 5-9 8-17 8s-11-3-17-8c0 10 1 26-5 40z" fill="#ff7f63"/>
  <path d="M46 54c5-10 9-17 14-24 5 7 9 14 14 24-10-5-18-5-28 0z" fill="#ff9e84"/>
  <path d="M48 74c-7 0-14-6-17-14 7-2 14 1 17 8z" fill="#64b564"/>
  <path d="M72 74c7 0 14-6 17-14-7-2-14 1-17 8z" fill="#64b564"/>
</svg>
