<svg xmlns="http://www.w3.org/2000/svg" width="512" height="512" viewBox="0 0 512 512">
  <defs>
    <filter id="shadow" x="-20%" y="-20%" width="140%" height="140%">
      <feDropShadow dx="0" dy="6" stdDeviation="6" flood-color="#000" flood-opacity="0.10"/>
    </filter>
  </defs>
  <rect x="32" y="32" width="448" height="448" rx="72" fill="#FFFDF5" stroke="#2B2B2B" stroke-width="6" filter="url(#shadow)"/>
  <circle cx="256" cy="230" r="150" fill="#BFE7FF" opacity="0.45"/>
  <path d="M140 160c30-70 202-70 232 0" fill="#FFD3C4" stroke="#2B2B2B" stroke-width="6" stroke-linecap="round"/>
  <path d="M120 178c46-26 226-26 272 0" fill="#FFD3C4" stroke="#2B2B2B" stroke-width="6" stroke-linecap="round"/>
  <circle cx="256" cy="230" r="98" fill="#FFD9C2" stroke="#2B2B2B" stroke-width="6"/>
  <path d="M172 220c8-56 52-88 84-92 48-7 100 22 116 72 8 24 6 48-2 64-10-42-56-64-104-64-38 0-72 10-94 34z" fill="#3B2F2F" opacity="0.95"/>
  <circle cx="218" cy="232" r="12" fill="#2B2B2B"/>
  <circle cx="294" cy="232" r="12" fill="#2B2B2B"/>
  <path d='M203 218c6-8 14-12 24-12' stroke='#2B2B2B' stroke-width='6' stroke-linecap='round' fill='none'/>
  <path d='M279 218c6-8 14-12 24-12' stroke='#2B2B2B' stroke-width='6' stroke-linecap='round' fill='none'/>
  <circle cx="196" cy="268" r="14" fill="#FF6B6B" opacity="0.35"/>
  <circle cx="316" cy="268" r="14" fill="#FF6B6B" opacity="0.35"/>
  <path d="M218 280c18 22 58 22 76 0" fill="none" stroke="#2B2B2B" stroke-width="8" stroke-linecap="round"/>
  <path d='M330 170c22-18 42-10 40 10-2 18-24 22-40 6-16 16-38 12-40-6-2-20 18-28 40-10z' fill='#FF6B6B' stroke='#2B2B2B' stroke-width='6'/>
  <path d="M156 420c10-96 56-142 100-154 44 12 90 58 100 154" fill="#FFE9A8" stroke="#2B2B2B" stroke-width="6" stroke-linecap="round"/>
  <path d="M178 420c8-78 40-116 78-126 38 10 70 48 78 126" fill="#D9C7FF" stroke="#2B2B2B" stroke-width="6" stroke-linecap="round"/>
  <path d="M196 314l-20-22" stroke="#2B2B2B" stroke-width="8" stroke-linecap="round"/>
  <path d="M316 314l20-22" stroke="#2B2B2B" stroke-width="8" stroke-linecap="round"/>
  <circle cx="196" cy="316" r="10" fill="#FFD84D" stroke="#2B2B2B" stroke-width="5"/>
  <circle cx="316" cy="316" r="10" fill="#FFD84D" stroke="#2B2B2B" stroke-width="5"/>
  <rect x="160" y="382" width="192" height="54" rx="20" fill="#FFFDF5" stroke="#2B2B2B" stroke-width="6"/>
  <text x="256" y="418" text-anchor="middle" font-family="ui-rounded, system-ui, -apple-system, Segoe UI, Arial" font-size="28" fill="#2B2B2B" font-weight="700">Carmen</text>
</svg>