<svg xmlns="http://www.w3.org/2000/svg" width="256" height="256" viewBox="0 0 256 256">
  <path d="M36 94c0-34 24-58 58-58h68c34 0 58 24 58 58v68c0 34-24 58-58 58H94c-34 0-58-24-58-58z"
        fill="#FFFDF5" stroke="#2B2B2B" stroke-width="8"/>
  <line x1="128" y1="28" x2="128" y2="52" stroke="#2B2B2B" stroke-width="8" stroke-linecap="round" transform="rotate(0 128 128)"/><line x1="128" y1="28" x2="128" y2="52" stroke="#2B2B2B" stroke-width="8" stroke-linecap="round" transform="rotate(30 128 128)"/><line x1="128" y1="28" x2="128" y2="52" stroke="#2B2B2B" stroke-width="8" stroke-linecap="round" transform="rotate(60 128 128)"/><line x1="128" y1="28" x2="128" y2="52" stroke="#2B2B2B" stroke-width="8" stroke-linecap="round" transform="rotate(90 128 128)"/><line x1="128" y1="28" x2="128" y2="52" stroke="#2B2B2B" stroke-width="8" stroke-linecap="round" transform="rotate(120 128 128)"/><line x1="128" y1="28" x2="128" y2="52" stroke="#2B2B2B" stroke-width="8" stroke-linecap="round" transform="rotate(150 128 128)"/><line x1="128" y1="28" x2="128" y2="52" stroke="#2B2B2B" stroke-width="8" stroke-linecap="round" transform="rotate(180 128 128)"/><line x1="128" y1="28" x2="128" y2="52" stroke="#2B2B2B" stroke-width="8" stroke-linecap="round" transform="rotate(210 128 128)"/><line x1="128" y1="28" x2="128" y2="52" stroke="#2B2B2B" stroke-width="8" stroke-linecap="round" transform="rotate(240 128 128)"/><line x1="128" y1="28" x2="128" y2="52" stroke="#2B2B2B" stroke-width="8" stroke-linecap="round" transform="rotate(270 128 128)"/><line x1="128" y1="28" x2="128" y2="52" stroke="#2B2B2B" stroke-width="8" stroke-linecap="round" transform="rotate(300 128 128)"/><line x1="128" y1="28" x2="128" y2="52" stroke="#2B2B2B" stroke-width="8" stroke-linecap="round" transform="rotate(330 128 128)"/><circle cx="128" cy="128" r="54" fill="#FFD84D" stroke="#2B2B2B" stroke-width="8"/>
  <text x="128" y="242" text-anchor="middle" font-family="ui-rounded, system-ui, -apple-system, Segoe UI, Arial"
        font-size="18" fill="#2B2B2B" opacity="0.75">Luz</text>
</svg>