<svg xmlns="http://www.w3.org/2000/svg" width="256" height="256" viewBox="0 0 256 256">
  <path d="M36 94c0-34 24-58 58-58h68c34 0 58 24 58 58v68c0 34-24 58-58 58H94c-34 0-58-24-58-58z"
        fill="#FFFDF5" stroke="#2B2B2B" stroke-width="8"/>
  <path d="M150 70c8 38-12 52-12 72 0 20 22 30 22 52 0 38-32 66-70 66-44 0-74-32-74-74 0-44 34-68 54-96 6 22 20 30 34 46 10-18 30-34 46-66z" fill="#FF6B6B" stroke="#2B2B2B" stroke-width="8" stroke-linejoin="round"/>
  <text x="128" y="242" text-anchor="middle" font-family="ui-rounded, system-ui, -apple-system, Segoe UI, Arial"
        font-size="18" fill="#2B2B2B" opacity="0.75">Fuego</text>
</svg>