<svg xmlns="http://www.w3.org/2000/svg" width="256" height="256" viewBox="0 0 256 256">
  <path d="M36 94c0-34 24-58 58-58h68c34 0 58 24 58 58v68c0 34-24 58-58 58H94c-34 0-58-24-58-58z"
        fill="#FFFDF5" stroke="#2B2B2B" stroke-width="8"/>
  
        <rect x="56" y="78" width="200" height="156" rx="28" fill="#FFD3C4" stroke="#2B2B2B" stroke-width="8"/>
        <path d="M128 196c-44-30-62-52-62-78 0-20 16-36 36-36 12 0 22 6 26 14 4-8 14-14 26-14 20 0 36 16 36 36 0 26-18 48-62 78z" fill="#FFFDF5" stroke="#2B2B2B" stroke-width="8"/>
  <text x="128" y="242" text-anchor="middle" font-family="ui-rounded, system-ui, -apple-system, Segoe UI, Arial"
        font-size="18" fill="#2B2B2B" opacity="0.75">Te quiero</text>
</svg>