<svg xmlns="http://www.w3.org/2000/svg" width="256" height="256" viewBox="0 0 256 256">
  <path d="M36 94c0-34 24-58 58-58h68c34 0 58 24 58 58v68c0 34-24 58-58 58H94c-34 0-58-24-58-58z"
        fill="#FFFDF5" stroke="#2B2B2B" stroke-width="8"/>
  <path d="M128 198c-60-40-84-70-84-106 0-28 22-50 50-50 16 0 30 8 34 18 4-10 18-18 34-18 28 0 50 22 50 50 0 36-24 66-84 106z" fill="#FFD3C4" stroke="#2B2B2B" stroke-width="8" />
  <text x="128" y="242" text-anchor="middle" font-family="ui-rounded, system-ui, -apple-system, Segoe UI, Arial"
        font-size="18" fill="#2B2B2B" opacity="0.75">Corazón</text>
</svg>