<svg xmlns="http://www.w3.org/2000/svg" width="256" height="256" viewBox="0 0 256 256">
  <path d="M36 94c0-34 24-58 58-58h68c34 0 58 24 58 58v68c0 34-24 58-58 58H94c-34 0-58-24-58-58z"
        fill="#FFFDF5" stroke="#2B2B2B" stroke-width="8"/>
  
        <path d="M86 170c-20 0-36-16-36-36 0-18 12-32 28-36 8-28 34-48 64-48 34 0 62 24 68 56 18 4 32 20 32 40 0 22-18 40-40 40H86z" fill="#BFE7FF" stroke="#2B2B2B" stroke-width="8" />
  <text x="128" y="242" text-anchor="middle" font-family="ui-rounded, system-ui, -apple-system, Segoe UI, Arial"
        font-size="18" fill="#2B2B2B" opacity="0.75">Nube</text>
</svg>